<svg width="609" height="632" viewBox="0 0 609 632" fill="none" xmlns="http://www.w3.org/2000/svg">
<path d="M244.684 461.577H105.092V589.378H244.684V461.577Z" fill="#1C2628" stroke="#1C2628" stroke-width="2.13" stroke-linecap="round" stroke-linejoin="round"/>
<path d="M317.063 181.445C344.037 199.794 378.218 203.17 409.592 219.671C441.222 236.108 470.237 265.351 459.46 289.051C448.683 312.496 398.05 330.144 370.757 353.844C343.782 377.289 339.892 406.532 323.695 429.722C303.862 444.057 275.676 463.361 252.783 465.272C226.829 460.43 204.19 433.353 179.256 414.75C154.578 395.892 127.858 385.762 110.895 367.159C93.6776 348.811 86.4716 321.734 76.4598 289.561C66.448 257.196 53.8216 219.48 63.8334 189.473C74.1003 159.72 106.75 137.74 141.696 123.469C176.387 109.198 212.863 102.891 241.432 116.206C269.746 129.713 290.088 163.097 317.063 181.445Z" fill="#5835E6" fill-opacity="0.89"/>
<path fill-rule="evenodd" clip-rule="evenodd" d="M218.156 105.885C218.794 105.376 220.962 104.93 221.344 104.293C223.002 101.617 228.359 95.7556 226.127 90.9774C223.959 86.1992 220.834 87.9194 220.834 87.9194C220.834 87.9194 220.452 77.9169 209.93 84.925C208.654 85.7532 208.272 84.2242 207.506 85.6258C206.932 86.6452 206.486 87.8557 206.04 88.9387" fill="#1C2628"/>
<path d="M218.156 105.885C218.794 105.376 220.962 104.93 221.344 104.293C223.002 101.617 228.359 95.7556 226.127 90.9774C223.959 86.1992 220.834 87.9194 220.834 87.9194C220.834 87.9194 220.452 77.9169 209.93 84.925C208.654 85.7532 208.272 84.2242 207.506 85.6258C206.932 86.6452 206.486 87.8557 206.04 88.9387" stroke="#1C2628" stroke-width="2.13" stroke-linecap="round" stroke-linejoin="round"/>
<path fill-rule="evenodd" clip-rule="evenodd" d="M179.129 108.306C178.746 109.071 176.961 110.345 176.897 111.046C176.451 114.168 174.091 121.749 178.109 125.19C182.062 128.63 184.167 125.763 184.167 125.763C184.167 125.763 188.631 134.682 195.326 123.979C196.092 122.705 197.112 123.915 197.239 122.323C197.367 121.112 197.239 119.902 197.176 118.691" fill="#1C2628"/>
<path d="M179.129 108.306C178.746 109.071 176.961 110.345 176.897 111.046C176.451 114.168 174.091 121.749 178.109 125.19C182.062 128.63 184.167 125.763 184.167 125.763C184.167 125.763 188.631 134.682 195.326 123.979C196.092 122.705 197.112 123.915 197.239 122.323C197.367 121.112 197.239 119.902 197.176 118.691" stroke="#1C2628" stroke-width="2.13" stroke-linecap="round" stroke-linejoin="round"/>
<path fill-rule="evenodd" clip-rule="evenodd" d="M161.911 160.994C168.671 148.38 173.9 139.014 173.9 139.014L185.123 134.619L191.5 121.24L214.585 126.91L212.162 133.153L208.08 147.998C208.08 147.998 211.524 160.803 206.932 160.548C206.422 160.548 205.593 164.371 204.573 170.614C190.735 169.404 174.219 167.493 161.911 160.994Z" fill="#FAF6EB" stroke="#1C2628" stroke-width="2.13" stroke-linecap="round" stroke-linejoin="round"/>
<path fill-rule="evenodd" clip-rule="evenodd" d="M222.684 114.231C224.469 97.9855 220.005 100.789 219.112 96.329C217.391 87.4734 214.776 84.479 198.451 85.4984C195.581 85.6895 192.202 85.8169 189.587 87.0911C177.662 93.0798 177.854 102.509 177.854 102.509C177.854 102.509 171.54 124.425 195.9 126.655C220.324 128.821 196.028 126.273 209.101 123.087C222.11 119.902 222.684 114.231 222.684 114.231Z" fill="#1C2628" stroke="#1C2628" stroke-width="2.13" stroke-linecap="round" stroke-linejoin="round"/>
<path fill-rule="evenodd" clip-rule="evenodd" d="M195.39 115.378C194.625 111.556 201.257 101.426 202.405 98.0492C204.445 91.9968 193.987 94.4814 200.364 93.1435C207.506 91.6782 213.883 91.4234 218.092 97.3484C219.75 99.6419 222.046 111.237 222.684 114.231C224.916 124.935 218.73 132.07 208.846 134.173C202.469 135.51 197.431 134.619 193.158 129.968C190.735 127.292 196.155 119.201 195.39 115.378Z" fill="#FAF6EB" stroke="#1C2628" stroke-width="2.13" stroke-linecap="round" stroke-linejoin="round"/>
<path fill-rule="evenodd" clip-rule="evenodd" d="M215.988 108.88C216.37 110.281 214.967 111.81 212.736 112.32C210.567 112.83 208.463 112.129 208.08 110.727" fill="#FAF6EB"/>
<path d="M215.988 108.88C216.37 110.281 214.967 111.81 212.736 112.32C210.567 112.83 208.463 112.129 208.08 110.727" stroke="#1C2628" stroke-width="2.13" stroke-linecap="round" stroke-linejoin="round"/>
<path fill-rule="evenodd" clip-rule="evenodd" d="M191.883 129.968L194.561 123.852C194.561 123.852 205.147 123.342 207.889 126.782C210.631 130.159 206.869 140.48 206.869 140.48L199.408 141.117" fill="#FAF6EB"/>
<path fill-rule="evenodd" clip-rule="evenodd" d="M199.599 111.683C198.324 109.899 195.39 111.428 194.816 113.021C193.541 116.334 196.666 122.131 202.214 118.245" fill="#FAF6EB"/>
<path d="M199.599 111.683C198.324 109.899 195.39 111.428 194.816 113.021C193.541 116.334 196.666 122.131 202.214 118.245" stroke="#1C2628" stroke-width="2.13" stroke-linecap="round" stroke-linejoin="round"/>
<path d="M199.089 115.251C199.089 115.251 198.451 114.423 198.579 114.55" stroke="#1C2628" stroke-width="2.13" stroke-linecap="round" stroke-linejoin="round"/>
<path fill-rule="evenodd" clip-rule="evenodd" d="M212.225 118.373C213.246 120.029 214.457 121.367 216.689 122.004C216.689 122.004 213.756 126.081 209.993 124.489C207.506 123.469 212.225 118.373 212.225 118.373Z" fill="#1C2628" stroke="#1C2628" stroke-width="2.13" stroke-linecap="round" stroke-linejoin="round"/>
<path fill-rule="evenodd" clip-rule="evenodd" d="M219.878 112.511C219.878 112.511 227.211 116.334 227.275 117.608C227.721 122.641 221.536 119.265 220.898 119.71" fill="#FAF6EB"/>
<path d="M219.878 112.511C219.878 112.511 227.211 116.334 227.275 117.608C227.721 122.641 221.536 119.265 220.898 119.71" stroke="#1C2628" stroke-width="2.13" stroke-linecap="round" stroke-linejoin="round"/>
<path fill-rule="evenodd" clip-rule="evenodd" d="M213.756 89.321L218.092 97.3484C212.417 89.2573 209.101 111.237 193.222 110.154C192.776 110.154 184.103 111.747 184.23 111.173C184.358 110.473 185.633 110.664 186.207 110.154C187.483 109.007 187.929 107.669 188.375 106.077C188.886 104.165 187.419 99.8968 189.205 98.4952C192.074 96.2016 196.538 87.9194 199.663 88.429L213.756 89.321Z" fill="#1C2628" stroke="#1C2628" stroke-width="2.13" stroke-linecap="round" stroke-linejoin="round"/>
<path fill-rule="evenodd" clip-rule="evenodd" d="M197.495 89.7032C196.793 89.1935 195.773 87.2822 195.071 87.0911C192.01 86.2629 184.868 82.8226 180.914 86.3266C176.961 89.7669 179.448 92.2516 179.448 92.2516C179.448 92.2516 170.01 95.4371 179.703 103.592C180.851 104.548 179.512 105.376 181.042 105.758C182.19 106.013 183.465 106.077 184.677 106.204" fill="#1C2628"/>
<path d="M197.495 89.7032C196.793 89.1935 195.773 87.2822 195.071 87.0911C192.01 86.2629 184.868 82.8226 180.914 86.3266C176.961 89.7669 179.448 92.2516 179.448 92.2516C179.448 92.2516 170.01 95.4371 179.703 103.592C180.851 104.548 179.512 105.376 181.042 105.758C182.19 106.013 183.465 106.077 184.677 106.204" stroke="#1C2628" stroke-width="2.13" stroke-linecap="round" stroke-linejoin="round"/>
<path fill-rule="evenodd" clip-rule="evenodd" d="M211.269 94.8637C211.269 94.0355 212.289 92.1242 212.098 91.4234C211.078 88.429 209.93 80.5927 204.828 79.2548C199.727 77.9169 199.089 81.421 199.089 81.421C199.089 81.421 191.118 75.3686 189.842 87.9831C189.715 89.4484 188.248 88.875 188.822 90.2766C189.268 91.4234 189.906 92.4427 190.48 93.5258" fill="#1C2628"/>
<path d="M211.269 94.8637C211.269 94.0355 212.289 92.1242 212.098 91.4234C211.078 88.429 209.93 80.5927 204.828 79.2548C199.727 77.9169 199.089 81.421 199.089 81.421C199.089 81.421 191.118 75.3686 189.842 87.9831C189.715 89.4484 188.248 88.875 188.822 90.2766C189.268 91.4234 189.906 92.4427 190.48 93.5258" stroke="#1C2628" stroke-width="2.13" stroke-linecap="round" stroke-linejoin="round"/>
<path fill-rule="evenodd" clip-rule="evenodd" d="M188.439 99.3234C187.61 99.196 185.888 97.8581 185.187 97.9855C182.062 98.4952 174.155 98.4314 171.987 103.273C169.819 108.115 173.198 109.262 173.198 109.262C173.198 109.262 165.992 116.143 178.172 119.392C179.639 119.774 178.81 121.112 180.277 120.794C181.425 120.539 182.572 120.093 183.72 119.71" fill="#1C2628"/>
<path d="M188.439 99.3234C187.61 99.196 185.888 97.8581 185.187 97.9855C182.062 98.4952 174.155 98.4314 171.987 103.273C169.819 108.115 173.198 109.262 173.198 109.262C173.198 109.262 165.992 116.143 178.172 119.392C179.639 119.774 178.81 121.112 180.277 120.794C181.425 120.539 182.572 120.093 183.72 119.71" stroke="#1C2628" stroke-width="2.13" stroke-linecap="round" stroke-linejoin="round"/>
<path fill-rule="evenodd" clip-rule="evenodd" d="M325.799 207.948L350.287 160.74C350.287 160.74 346.652 160.166 345.121 160.676C343.591 161.185 338.234 171.443 338.234 171.443L335.237 162.077C335.237 162.077 333.196 160.994 333.133 166.155C333.069 171.315 333.005 176.476 333.005 176.476L324.587 187.752C324.587 187.752 322.037 185.14 323.121 183.102C324.205 181.063 325.799 175.393 326.883 173.354C327.967 171.315 325.863 170.232 325.863 170.232L314.767 184.057L311.578 197.181L243.6 208.968L259.542 243.626L325.799 207.948Z" fill="#FAF6EB" stroke="#1C2628" stroke-width="2.13" stroke-linecap="round" stroke-linejoin="round"/>
<path d="M336.64 182.273C338.107 179.024 338.425 174.756 338.362 171.188" stroke="#1C2628" stroke-width="2.13" stroke-linecap="round" stroke-linejoin="round"/>
<path fill-rule="evenodd" clip-rule="evenodd" d="M122.246 241.715C142.461 241.651 189.013 254.52 210.185 255.476L210.822 226.743C210.822 226.743 233.269 249.232 243.983 247.448C262.731 244.327 284.157 237.637 284.157 237.637L279.183 219.416L274.209 201.195L248.255 200.94C248.255 200.94 234.608 158.064 228.678 156.917L211.779 148.061C211.779 148.061 195.326 153.986 173.836 139.078C160.636 129.904 130.728 149.973 131.429 167.556C132.322 186.351 121.8 221.837 122.246 241.715Z" fill="#1C2628" stroke="#1C2628" stroke-width="2.13" stroke-linecap="round" stroke-linejoin="round"/>
<path d="M222.654 419.754C222.749 417.68 211.59 415.484 197.729 414.849C183.868 414.214 172.554 415.38 172.459 417.453C172.363 419.527 183.523 421.723 197.384 422.358C211.245 422.994 222.559 421.827 222.654 419.754Z" fill="#1C2628" stroke="#1C2628" stroke-width="2.13" stroke-linecap="round" stroke-linejoin="round"/>
<path fill-rule="evenodd" clip-rule="evenodd" d="M108.281 401.18C110.258 400.479 118.612 402.836 125.435 414.049C132.258 425.198 136.913 438.386 135.128 439.469C133.342 440.552 125.817 429.085 118.994 417.935C112.171 406.786 102.797 403.155 108.281 401.18Z" fill="#1C2628" stroke="#1C2628" stroke-width="2.13" stroke-linecap="round" stroke-linejoin="round"/>
<path d="M148.838 302.239C153.047 296.25 153.238 290.771 152.346 286.694C151.708 283.954 151.006 266.944 150.241 265.733L139.592 269.364" fill="#FAF6EB"/>
<path d="M148.838 302.239C153.047 296.25 153.238 290.771 152.346 286.694C151.708 283.954 151.006 266.944 150.241 265.733L139.592 269.364" stroke="#1C2628" stroke-width="2.13" stroke-linecap="round" stroke-linejoin="round"/>
<path fill-rule="evenodd" clip-rule="evenodd" d="M214.075 428.766C208.909 407.869 244.365 348.237 244.365 348.237L184.932 373.339L179.83 439.597L205.402 451.893L233.652 446.159C233.652 446.159 215.605 435.073 214.075 428.766Z" fill="#FAF6EB" stroke="#1C2628" stroke-width="2.13" stroke-linecap="round" stroke-linejoin="round"/>
<path fill-rule="evenodd" clip-rule="evenodd" d="M118.548 283.444C109.11 273.76 122.82 247.576 122.82 247.576C122.82 247.576 173.772 256.304 173.517 256.24C172.816 256.113 248.383 259.298 271.404 272.486C282.181 278.666 281.415 301.602 276.824 313.133L221.727 418.891C221.727 418.891 210.631 415.897 206.805 415.515C198.515 414.686 173.453 416.279 173.453 416.279L206.614 325.811L145.841 310.648C135.447 307.845 126.073 291.217 118.548 283.444Z" fill="#47584E" stroke="#1C2628" stroke-width="2.13" stroke-linecap="round" stroke-linejoin="round"/>
<path fill-rule="evenodd" clip-rule="evenodd" d="M207.251 438.259L212.927 430.104C212.927 430.104 223.576 434.819 234.29 439.597C225.808 443.419 215.988 442.273 207.251 438.259Z" fill="#1C2628" stroke="#1C2628" stroke-width="2.13" stroke-linecap="round" stroke-linejoin="round"/>
<path fill-rule="evenodd" clip-rule="evenodd" d="M177.854 433.226C177.854 433.226 184.996 427.556 188.758 435.201C190.097 437.877 200.428 443.674 204.127 442.782L207.315 438.259C216.052 442.273 225.872 443.483 234.353 439.597C240.922 442.527 247.49 445.522 251.635 447.369C263.432 452.721 259.925 462.532 259.925 462.532L210.376 462.851L174.601 460.748L177.854 433.226Z" fill="#E6914C"/>
<path fill-rule="evenodd" clip-rule="evenodd" d="M177.854 433.226C177.854 433.226 184.996 427.556 188.758 435.201C190.097 437.877 200.428 443.674 204.127 442.782L207.315 438.259C216.052 442.273 225.872 443.483 234.353 439.597C240.922 442.527 247.49 445.522 251.635 447.369C263.432 452.721 259.925 462.532 259.925 462.532L210.376 462.851L174.601 460.748L177.854 433.226Z" stroke="#1C2628" stroke-width="2.13" stroke-linecap="round" stroke-linejoin="round"/>
<path d="M137.296 276.946L149.604 272.423" stroke="#1C2628" stroke-width="2.13" stroke-linecap="round" stroke-linejoin="round"/>
<path fill-rule="evenodd" clip-rule="evenodd" d="M123.777 430.486C131.876 417.935 174.984 399.651 174.984 399.651L138.89 377.735L96.1646 412.265L99.8632 436.539L120.716 456.416C120.652 456.48 120.206 435.965 123.777 430.486Z" fill="#FAF6EB" stroke="#1C2628" stroke-width="2.13" stroke-linecap="round" stroke-linejoin="round"/>
<path fill-rule="evenodd" clip-rule="evenodd" d="M138.316 315.936L181.488 345.944L108.727 400.798L108.217 401.18C108.217 401.18 115.742 404.748 121.417 412.01C126.328 418.254 135 439.469 135 439.469L182.254 407.933L242.388 367.86L246.533 365.12C253.612 358.813 257.629 346.517 256.035 336.451C255.525 333.329 254.568 330.462 252.974 328.041C238.754 306.316 192.138 277.137 190.671 276.309C191.054 276.436 191.5 274.461 191.947 271.531C193.031 264.777 194.115 253.182 194.115 253.182L124.797 239.166C124.797 239.166 94.6979 285.865 113.127 303.449C120.971 310.903 133.087 311.158 138.316 315.936Z" fill="#47584E" stroke="#1C2628" stroke-width="2.13" stroke-linecap="round" stroke-linejoin="round"/>
<path fill-rule="evenodd" clip-rule="evenodd" d="M108.791 400.798C112.872 402.072 115.933 401.753 118.229 400.925C125.052 398.44 124.287 391.432 132.832 387.227C144.566 381.494 154.96 390.285 161.082 384.169C165.865 379.391 161.273 372.192 166.247 367.86C171.158 363.591 218.73 348.173 180.213 327.659C159.87 316.828 154.896 304.469 135.957 301.028C129.325 299.818 124.351 300.264 120.78 301.028C117.974 301.602 115.423 302.43 113.127 303.449C122.055 309.438 133.087 311.222 138.253 315.936L181.425 345.944L108.791 400.798Z" fill="#1C2628" stroke="#1C2628" stroke-width="2.13" stroke-linecap="round" stroke-linejoin="round"/>
<path d="M107.452 285.547C118.548 283.699 127.667 276.5 128.687 272.996C129.389 270.639 136.531 257.132 136.403 255.922L125.244 254.584" stroke="#1C2628" stroke-width="2.13" stroke-linecap="round" stroke-linejoin="round"/>
<path fill-rule="evenodd" clip-rule="evenodd" d="M113.382 434.564L124.351 434.5C124.351 434.5 124.478 443.929 126.455 454.186C119.504 451.001 116.061 442.336 113.382 434.564Z" fill="#1C2628" stroke="#1C2628" stroke-width="2.13" stroke-linecap="round" stroke-linejoin="round"/>
<path fill-rule="evenodd" clip-rule="evenodd" d="M100.055 407.551C100.055 407.551 108.791 410.163 104.646 417.617C103.243 420.229 104.327 432.015 107.197 434.5H113.382C115.997 442.273 119.504 451.001 126.455 454.186C127.093 457.627 127.794 461.194 128.432 464.507C129.261 468.967 132.258 465.654 138.571 469.349C141.377 471.006 140.421 479.097 140.421 479.097L112.553 476.485L96.4835 453.231L88.7673 440.425L79.2657 424.561L100.055 407.551Z" fill="#E6914C" stroke="#1C2628" stroke-width="2.13" stroke-linecap="round" stroke-linejoin="round"/>
<path fill-rule="evenodd" clip-rule="evenodd" d="M127.603 239.102L194.179 253.119C194.179 253.119 181.999 260.827 175.558 262.42C169.053 264.077 162.613 262.93 158.531 261.847C154.386 260.7 138.316 255.54 131.047 261.273C118.165 265.287 119.696 252.29 119.696 252.29L127.603 239.102Z" fill="#1C2628" stroke="#1C2628" stroke-width="2.13" stroke-linecap="round" stroke-linejoin="round"/>
<path d="M180.277 391.56C177.343 399.906 175.111 408.889 169.691 415.897" stroke="#1C2628" stroke-width="2.13" stroke-linecap="round" stroke-linejoin="round"/>
<path d="M116.125 257.578L129.134 259.171" stroke="#1C2628" stroke-width="2.13" stroke-linecap="round" stroke-linejoin="round"/>
<path d="M179.32 265.415L190.671 276.245" stroke="#1C2628" stroke-width="2.13" stroke-linecap="round" stroke-linejoin="round"/>
<path d="M194.625 347.281L181.488 346.007" stroke="#1C2628" stroke-width="2.13" stroke-linecap="round" stroke-linejoin="round"/>
<path d="M167.268 304.596L209.292 345.37L123.139 400.861L143.035 430.614" stroke="#1C2628" stroke-width="2.13" stroke-linecap="round" stroke-linejoin="round"/>
<path d="M216.179 194.888L210.759 226.679" stroke="#1C2628" stroke-width="2.13" stroke-linecap="round" stroke-linejoin="round"/>
<path d="M313.683 186.287L131.174 347.154" stroke="#1C2628" stroke-width="2.13" stroke-linecap="round" stroke-linejoin="round"/>
<path d="M349.521 154.687L328.095 173.609" stroke="#1C2628" stroke-width="2.13" stroke-linecap="round" stroke-linejoin="round"/>
<path fill-rule="evenodd" clip-rule="evenodd" d="M176.578 307.59C173.9 320.651 152.473 336.451 152.473 336.451C152.473 336.451 147.754 333.839 149.795 330.653C151.835 327.404 158.531 319.886 158.531 319.886C158.531 319.886 154.578 320.778 154.259 319.44C153.94 318.102 155.024 316.51 155.024 316.51C155.024 316.51 153.43 315.49 151.772 314.471C150.177 313.452 152.537 311.54 152.537 311.54C152.537 311.54 147.69 308.482 146.096 307.399C144.502 306.38 142.589 304.023 142.589 304.023C142.589 304.023 144.374 299.499 145.969 300.519C147.563 301.538 152.154 303.322 152.154 303.322L135.574 286.056L142.206 276.436L156.427 269.556C167.587 285.037 177.854 301.41 176.578 307.59Z" fill="#FAF6EB" stroke="#1C2628" stroke-width="2.13" stroke-linecap="round" stroke-linejoin="round"/>
<path fill-rule="evenodd" clip-rule="evenodd" d="M106.878 256.24L131.429 290.261C131.429 290.261 138.444 282.106 141.25 279.94C142.079 279.303 143.227 278.539 144.566 277.647C150.305 273.952 159.552 268.791 159.552 268.791C154.004 262.038 133.534 235.344 133.534 235.344L169.245 186.797L175.366 183.165L178.109 181.509L133.151 159.656L98.5879 221.073C96.8661 231.139 99.8633 248.914 106.878 256.24Z" fill="#1C2628" stroke="#1C2628" stroke-width="2.13" stroke-linecap="round" stroke-linejoin="round"/>
<path d="M166.311 316.319C165.355 317.529 164.016 318.357 162.549 318.931C161.082 319.504 159.552 319.759 158.021 320.014" stroke="#1C2628" stroke-width="2.13" stroke-linecap="round" stroke-linejoin="round"/>
<path d="M162.804 313.069C160.381 315.172 157.128 316.255 153.876 316.064" stroke="#1C2628" stroke-width="2.13" stroke-linecap="round" stroke-linejoin="round"/>
<path d="M160.444 308.227C159.105 309.247 157.639 310.139 156.108 310.776C155.407 311.094 154.641 311.349 153.876 311.349C153.111 311.413 152.282 311.222 151.708 310.648" stroke="#1C2628" stroke-width="2.13" stroke-linecap="round" stroke-linejoin="round"/>
<path d="M192.202 455.142L175.239 455.206" stroke="#1C2628" stroke-width="2.13" stroke-linecap="round" stroke-linejoin="round"/>
<path d="M259.542 454.951H200.364" stroke="#1C2628" stroke-width="2.13" stroke-linecap="round" stroke-linejoin="round"/>
<path d="M92.7848 434.564L83.5382 421.185" stroke="#1C2628" stroke-width="2.13" stroke-linecap="round" stroke-linejoin="round"/>
<path d="M140.548 473.554L117.336 469.923L96.1646 439.406" stroke="#1C2628" stroke-width="2.13" stroke-linecap="round" stroke-linejoin="round"/>
<path fill-rule="evenodd" clip-rule="evenodd" d="M212.034 148.061L228.742 156.853C234.608 158 248.319 200.877 248.319 200.877L274.273 201.131L279.247 219.352C268.343 221.009 260.499 208.649 253.484 209.86C242.452 211.771 239.264 214.319 235.948 210.242C232.058 205.464 241.942 196.035 233.588 188.135C225.489 180.426 218.411 187.561 215.35 172.016C214.457 167.493 219.941 161.249 217.199 157.49C213.246 152.139 202.915 155.579 200.938 151.374C200.747 150.992 198.706 149.335 198.642 148.826C202.532 149.272 210.057 148.444 212.034 148.061Z" fill="#FAF6EB"/>
<path fill-rule="evenodd" clip-rule="evenodd" d="M131.047 261.273C135.957 267.326 140.484 272.805 144.566 277.647C150.305 273.952 159.552 268.791 159.552 268.791C154.004 262.038 133.534 235.344 133.534 235.344L169.245 186.797L175.366 183.165C171.859 180.298 167.268 177.686 161.656 177.304C147.818 176.412 133.916 189.536 132.641 201.45C132.003 207.375 134.937 208.585 133.661 213.937C131.047 224.895 117.4 224.704 114.977 233.496C113.51 238.465 116.443 243.244 131.047 261.273Z" fill="#FAF6EB"/>
<path fill-rule="evenodd" clip-rule="evenodd" d="M217.901 169.595C221.663 176.985 223.704 178.387 224.916 178.132C226.51 177.75 227.785 174.055 226.318 171.379C224.852 168.703 220.962 167.62 217.901 169.595Z" fill="#1C2628" stroke="#1C2628" stroke-width="2.13" stroke-linecap="round" stroke-linejoin="round"/>
<path fill-rule="evenodd" clip-rule="evenodd" d="M231.037 182.464C231.93 182.146 232.185 179.024 231.165 178.578C230.527 178.26 229.188 178.96 228.933 180.044C228.614 181.445 230.336 182.719 231.037 182.464Z" fill="#1C2628" stroke="#1C2628" stroke-width="2.13" stroke-linecap="round" stroke-linejoin="round"/>
<path fill-rule="evenodd" clip-rule="evenodd" d="M141.824 206.037C143.801 205.464 144.438 202.979 144.438 201.577C144.502 198.902 142.461 196.035 140.612 196.098C138.316 196.162 135.829 200.749 137.36 203.68C138.125 205.145 140.038 206.547 141.824 206.037Z" fill="#1C2628" stroke="#1C2628" stroke-width="2.13" stroke-linecap="round" stroke-linejoin="round"/>
<path fill-rule="evenodd" clip-rule="evenodd" d="M190.735 276.245C192.202 277.073 238.754 306.252 253.038 327.977C254.632 330.398 255.652 333.329 256.099 336.387C259.16 334.348 261.583 331.736 262.667 328.423C264.963 321.606 261.328 312.815 255.844 307.845C247.809 300.582 239.072 304.787 231.803 296.76C227.53 292.045 228.997 288.796 225.936 284.018C219.941 274.589 203.425 270.002 191.947 271.467C191.564 274.398 191.118 276.436 190.735 276.245Z" fill="#1C2628" stroke="#1C2628" stroke-width="2.13" stroke-linecap="round" stroke-linejoin="round"/>
<path fill-rule="evenodd" clip-rule="evenodd" d="M182.381 407.933C185.697 409.08 189.141 409.59 192.329 409.271C197.877 408.634 198.706 405.767 210.312 399.014C224.533 390.731 227.403 392.643 232.823 387.482C238.116 382.449 241.432 374.804 242.516 367.86L182.381 407.933Z" fill="#1C2628" stroke="#1C2628" stroke-width="2.13" stroke-linecap="round" stroke-linejoin="round"/>
<path fill-rule="evenodd" clip-rule="evenodd" d="M329.944 168.448L333.26 171.379C335.938 173.736 340.083 173.481 342.443 170.869L352.519 159.593C354.878 156.917 354.623 152.776 352.008 150.419L348.692 147.488C346.014 145.131 341.869 145.385 339.51 147.998L329.434 159.274C327.011 161.95 327.266 166.091 329.944 168.448Z" fill="#1C2628" stroke="#1C2628" stroke-width="2.13" stroke-linecap="round" stroke-linejoin="round"/>
<path d="M352.519 159.975L339.701 149.144" stroke="#FAF6EB" stroke-width="2.13" stroke-linecap="round" stroke-linejoin="round"/>
<path d="M344.037 170.041L331.028 158.446" stroke="#FAF6EB" stroke-width="2.13" stroke-linecap="round" stroke-linejoin="round"/>
<path d="M352.327 153.54L336.385 171.124" stroke="#FAF6EB" stroke-width="2.13" stroke-linecap="round" stroke-linejoin="round"/>
<path d="M345.95 147.679L329.498 165.454" stroke="#FAF6EB" stroke-width="2.13" stroke-linecap="round" stroke-linejoin="round"/>
<path d="M152.027 259.298L159.552 268.791L150.815 273.824" stroke="#1C2628" stroke-width="2.13" stroke-linecap="round" stroke-linejoin="round"/>
<path d="M162.931 204.253L140.676 234.898" stroke="white" stroke-width="2.13" stroke-linecap="round" stroke-linejoin="round"/>
<path d="M172.688 201.131L152.091 229.419" stroke="white" stroke-width="2.13" stroke-linecap="round" stroke-linejoin="round"/>
<path d="M212.353 200.048C211.077 208.331 211.715 227.444 211.524 227.698" stroke="white" stroke-width="2.13" stroke-linecap="round" stroke-linejoin="round"/>
<path d="M111.087 217.505C112.936 219.161 114.211 221.773 113.637 224.194C113.382 225.277 112.808 226.233 112.298 227.189C108.472 234.834 109.429 244.645 114.785 251.271C117.145 254.265 120.333 256.623 122.501 259.744" stroke="white" stroke-width="2.13" stroke-linecap="round" stroke-linejoin="round"/>
<path d="M108.727 248.468C110.385 257.005 117.974 262.93 122.374 270.384" stroke="white" stroke-width="2.13" stroke-linecap="round" stroke-linejoin="round"/>
<path d="M231.803 159.848C239.519 175.456 248.255 200.813 248.255 200.813L274.209 201.068" stroke="#1C2628" stroke-width="2.13" stroke-linecap="round" stroke-linejoin="round"/>
<path d="M216.243 225.596C219.75 228.845 223.449 231.84 227.594 234.197C233.971 237.828 251.252 243.18 251.252 243.18C255.844 238.593 261.647 241.077 265.983 242.606" stroke="white" stroke-width="2.13" stroke-linecap="round" stroke-linejoin="round"/>
<path d="M250.678 238.656C246.023 239.485 241.814 235.535 237.095 234.961" stroke="white" stroke-width="2.13" stroke-linecap="round" stroke-linejoin="round"/>
<path d="M188.312 148.571C185.825 148.826 183.529 147.36 181.233 146.277C177.216 144.43 172.369 143.474 169.819 139.843C164.462 140.225 157.957 141.181 153.175 143.665C151.58 144.494 150.05 145.513 148.838 146.915C147.117 148.89 145.969 151.565 143.609 152.712" stroke="white" stroke-width="2.13" stroke-linecap="round" stroke-linejoin="round"/>
<path d="M249.722 338.999C250.615 343.65 251.444 348.874 248.893 352.888C247.745 354.672 246.023 356.01 244.365 357.284C234.29 365.12 224.023 372.638 213.628 379.965" stroke="#1C2628" stroke-width="2.13" stroke-linecap="round" stroke-linejoin="round"/>
<path d="M226.892 362.19C219.431 366.968 212.353 372.319 205.657 378.181C202.532 380.92 199.408 383.787 195.581 385.507" stroke="#1C2628" stroke-width="2.13" stroke-linecap="round" stroke-linejoin="round"/>
<path d="M206.677 371.3C202.979 375.76 197.813 378.754 192.776 381.557C190.161 383.023 187.546 384.488 184.996 385.953" stroke="#1C2628" stroke-width="2.13" stroke-linecap="round" stroke-linejoin="round"/>
<path d="M228.614 396.338C226.255 400.798 220.579 409.844 217.646 413.922" stroke="#1C2628" stroke-width="2.13" stroke-linecap="round" stroke-linejoin="round"/>
<path d="M219.878 400.033C219.176 403.091 218.028 406.022 216.37 408.698" stroke="#1C2628" stroke-width="2.13" stroke-linecap="round" stroke-linejoin="round"/>
<path fill-rule="evenodd" clip-rule="evenodd" d="M465.136 407.933L466.156 482.728L483.629 569.819C483.629 569.819 488.157 587.403 485.414 592.054C482.927 596.259 466.666 593.583 466.666 593.583C466.666 593.583 427.193 597.087 416.416 593.456C397.54 587.085 422.283 581.988 422.283 581.988L451.808 570.839L424.068 496.49L408.189 408.952L465.136 407.933Z" fill="#E6914C" stroke="#1C2628" stroke-width="2.13" stroke-linecap="round" stroke-linejoin="round"/>
<path fill-rule="evenodd" clip-rule="evenodd" d="M372.16 408.506L364.316 498.21L365.974 559.881C365.974 559.881 371.841 571.412 369.481 576.254C367.377 580.65 350.924 579.312 350.924 579.312C350.924 579.312 316.552 585.046 305.52 582.306C286.198 577.528 305.775 571.54 305.775 571.54L334.28 557.906L322.419 491.138L328.222 399.969L372.16 408.506Z" fill="#E6914C" stroke="#1C2628" stroke-width="2.13" stroke-linecap="round" stroke-linejoin="round"/>
<path fill-rule="evenodd" clip-rule="evenodd" d="M443.135 230.247C443.135 230.247 488.603 255.731 502.76 275.162C512.708 288.86 529.416 319.122 529.416 319.122C529.416 319.122 536.813 327.085 534.39 333.839C531.647 341.484 535.282 341.102 535.856 342.885C542.042 363.209 515.004 349.256 515.004 349.256L510.476 326.002L471.895 285.674L429.616 263.376L443.135 230.247Z" fill="#E6914C" stroke="#1C2628" stroke-width="2.13" stroke-linecap="round" stroke-linejoin="round"/>
<path fill-rule="evenodd" clip-rule="evenodd" d="M362.212 255.285L352.008 316.064L326.054 307.718C326.054 307.718 326.756 270.511 333.005 248.34C339.254 226.169 358.513 224.258 358.513 224.258L362.212 255.285Z" fill="#E6914C" stroke="#1C2628" stroke-width="2.13" stroke-linecap="round" stroke-linejoin="round"/>
<path fill-rule="evenodd" clip-rule="evenodd" d="M420.178 232.795L412.717 224.449L400.983 223.812L393.267 235.089L388.038 224.577L376.113 223.876L367.441 228.718L369.481 299.308L423.749 302.366L420.178 232.795Z" fill="#FAF6EB" stroke="#1C2628" stroke-width="2.13" stroke-linecap="round" stroke-linejoin="round"/>
<path fill-rule="evenodd" clip-rule="evenodd" d="M412.717 192.849C418.01 175.839 411.059 162.714 386.763 165.773C383.957 166.155 380.577 166.473 378.026 167.939C366.548 174.628 369.609 192.021 368.333 193.614C365.272 197.309 369.099 202.469 365.974 208.904C359.533 222.283 364.125 239.421 364.125 239.421L424.706 237.637C424.706 237.637 427.193 231.648 424.196 220.435C423.112 216.485 418.329 216.677 417.436 205.782C416.479 194.952 412.717 192.849 412.717 192.849Z" fill="#1C2628" stroke="#1C2628" stroke-width="2.13" stroke-linecap="round" stroke-linejoin="round"/>
<path fill-rule="evenodd" clip-rule="evenodd" d="M382.873 204.317L383.064 219.289L379.302 223.685C379.302 223.685 377.452 238.529 383.319 242.097C389.824 245.919 404.299 238.402 409.273 237.127C413.737 235.981 406.595 226.679 406.595 226.679L406.085 209.541L406.468 202.852L382.873 204.317Z" fill="#E6914C" stroke="#1C2628" stroke-width="2.13" stroke-linecap="round" stroke-linejoin="round"/>
<path fill-rule="evenodd" clip-rule="evenodd" d="M379.812 195.398C378.792 191.639 379.11 184.185 380.067 180.744C381.725 174.565 383.511 177.304 389.76 175.584C396.775 173.673 400.154 170.869 404.746 176.476C406.531 178.642 411.761 186.797 412.59 189.727C415.459 200.24 409.911 210.879 400.218 213.555C393.969 215.275 388.867 214.702 384.34 210.306C381.789 207.885 380.896 199.156 379.812 195.398Z" fill="#E6914C" stroke="#1C2628" stroke-width="2.13" stroke-linecap="round" stroke-linejoin="round"/>
<path fill-rule="evenodd" clip-rule="evenodd" d="M393.969 194.442C393.459 192.977 394.798 191.256 396.966 190.556C399.07 189.855 401.175 190.492 401.685 191.894C402.131 193.359 400.856 195.079 398.688 195.78C396.52 196.544 394.415 195.907 393.969 194.442Z" fill="#FAFCFF" stroke="#1C2628" stroke-width="2.13" stroke-linecap="round" stroke-linejoin="round"/>
<path fill-rule="evenodd" clip-rule="evenodd" d="M406.595 188.644C406.149 187.179 407.488 185.459 409.592 184.758C411.697 184.057 413.801 184.694 414.311 186.096C414.758 187.561 413.482 189.281 411.314 189.982C409.146 190.747 407.042 190.11 406.595 188.644Z" fill="#FAFCFF" stroke="#1C2628" stroke-width="2.13" stroke-linecap="round" stroke-linejoin="round"/>
<path fill-rule="evenodd" clip-rule="evenodd" d="M385.041 221.073L383.511 205.782C383.511 205.782 395.818 203.043 398.815 206.292C401.749 209.477 398.624 219.989 398.624 219.989L391.227 221.073" fill="#E6914C"/>
<path fill-rule="evenodd" clip-rule="evenodd" d="M372.415 193.869C375.348 199.093 380.258 187.37 380.258 187.37L400.154 182.656L401.557 172.526L406.213 183.866L413.291 183.739C413.291 183.739 407.679 169.659 406.213 168.321C400.41 162.778 390.525 163.097 384.148 168.385C378.855 172.781 366.357 183.165 372.415 193.869Z" fill="#1C2628" stroke="#1C2628" stroke-width="2.13" stroke-linecap="round" stroke-linejoin="round"/>
<path fill-rule="evenodd" clip-rule="evenodd" d="M381.789 196.544C380.386 194.824 377.58 196.544 377.07 198.201C375.986 201.577 378.537 207.248 383.829 203.871" fill="#E6914C"/>
<path d="M381.789 196.544C380.386 194.824 377.58 196.544 377.07 198.201C375.986 201.577 378.537 207.248 383.829 203.871" stroke="#1C2628" stroke-width="2.13" stroke-linecap="round" stroke-linejoin="round"/>
<path fill-rule="evenodd" clip-rule="evenodd" d="M396.392 195.206C395.372 195.844 394.096 195.716 393.586 194.888C393.076 194.06 393.459 192.849 394.479 192.212C395.499 191.575 396.775 191.702 397.285 192.531C397.795 193.359 397.412 194.569 396.392 195.206Z" fill="#1C2628" stroke="#1C2628" stroke-width="2.13" stroke-linecap="round" stroke-linejoin="round"/>
<path fill-rule="evenodd" clip-rule="evenodd" d="M406.468 189.154C405.766 188.135 405.957 186.478 408.636 186.032C409.592 185.841 409.529 186.351 410.166 187.306C410.868 188.326 409.911 189.409 409.146 189.982C408.317 190.556 407.169 190.173 406.468 189.154Z" fill="#1C2628" stroke="#1C2628" stroke-width="2.13" stroke-linecap="round" stroke-linejoin="round"/>
<path d="M380.386 199.794C380.513 199.921 380.577 200.048 380.705 200.176" stroke="#1C2628" stroke-width="2.13" stroke-linecap="round" stroke-linejoin="round"/>
<path fill-rule="evenodd" clip-rule="evenodd" d="M415.778 224.067L420.114 236.044L428.723 259.872L423.494 274.015L422.027 297.142L360.171 320.651L353.156 252.864L373.435 238.529L374.71 219.544L381.853 220.308L383.702 225.023C385.934 230.82 391.482 234.643 397.731 234.643H399.517C405.065 234.643 409.337 229.801 408.636 224.322L408.317 221.773L415.778 224.067Z" fill="#FAF6EB" stroke="#1C2628" stroke-width="2.13" stroke-linecap="round" stroke-linejoin="round"/>
<path fill-rule="evenodd" clip-rule="evenodd" d="M397.157 203.425C399.517 205.591 402.769 203.17 405.702 202.979C405.702 202.979 405.511 208.203 400.218 207.694C396.711 207.311 397.157 203.425 397.157 203.425Z" fill="#1C2628" stroke="#1C2628" stroke-width="2.13" stroke-linecap="round" stroke-linejoin="round"/>
<path fill-rule="evenodd" clip-rule="evenodd" d="M405.192 190.747C408.827 191.448 412.717 190.237 413.163 192.34C413.674 195.079 407.807 197.054 407.042 196.927" fill="#E6914C"/>
<path d="M405.192 190.747C408.827 191.448 412.717 190.237 413.163 192.34C413.674 195.079 407.807 197.054 407.042 196.927" stroke="#1C2628" stroke-width="2.13" stroke-linecap="round" stroke-linejoin="round"/>
<path d="M394.288 172.59C392.502 175.775 392.757 179.725 392.119 183.356" stroke="#FAF6EB" stroke-width="2.13" stroke-linecap="round" stroke-linejoin="round"/>
<path d="M383.319 175.265C367.951 174.055 372.287 203.425 370.757 211.707" stroke="#FAF6EB" stroke-width="2.13" stroke-linecap="round" stroke-linejoin="round"/>
<path fill-rule="evenodd" clip-rule="evenodd" d="M319.039 499.93L328.414 495.598L337.15 504.198L345.121 493.049L356.472 503.179L362.148 495.279L373.69 502.988L370.438 445.904L399.772 376.588C399.772 376.588 400.665 382.64 402.131 391.878C406.213 418.318 414.566 470.623 417.946 480.435C418.074 480.753 419.285 488.653 420.178 494.196C420.688 497.254 421.007 499.548 421.007 499.548L429.488 493.368L438.671 503.689L447.982 495.343L457.675 504.835L464.626 496.362L474.51 504.644L477.124 494.833C477.124 494.833 464.243 378.499 454.55 351.996C444.857 325.493 435.355 323.327 435.355 323.327L351.817 306.698C351.817 306.698 350.669 310.712 348.756 317.274C340.721 344.924 319.869 418.445 319.869 431.251C319.932 441.062 319.55 464.953 319.295 481.709C319.167 492.285 319.039 499.93 319.039 499.93Z" fill="#1C2628" stroke="#1C2628" stroke-width="2.13" stroke-linecap="round" stroke-linejoin="round"/>
<path fill-rule="evenodd" clip-rule="evenodd" d="M380.258 219.607L361.191 209.159L358.322 221.519L347.736 221.773L352.391 235.981L338.553 240.886L344.802 253.501L335.811 262.866L349.904 268.536L349.394 317.656L381.342 318.039L380.258 219.607Z" fill="#1C2628" stroke="#1C2628" stroke-width="2.13" stroke-linecap="round" stroke-linejoin="round"/>
<path fill-rule="evenodd" clip-rule="evenodd" d="M412.59 223.048C412.59 223.048 405.447 309.183 405.766 314.407C406.085 319.631 436.439 309.374 436.439 309.374L439.5 266.052L450.979 261.847L443.327 252.29L456.909 245.856L447.28 240.695L457.165 225.851L433.952 223.94L412.59 223.048Z" fill="#1C2628" stroke="#1C2628" stroke-width="2.13" stroke-linecap="round" stroke-linejoin="round"/>
<path fill-rule="evenodd" clip-rule="evenodd" d="M360.745 341.165C368.844 353.334 382.937 348.747 394.096 354.863C402.96 359.705 408.955 373.848 415.459 381.43C435.738 404.875 466.539 408.634 489.751 365.821C490.644 364.165 491.473 362.444 492.238 360.724C501.995 338.49 501.166 307.527 464.434 298.289C436.121 291.153 425.599 293.956 418.966 294.339C416.288 294.466 414.248 294.211 411.952 292.746C401.749 286.311 394.033 263.057 380.067 265.032C378.537 265.223 370.438 267.453 372.032 278.284C373.626 289.051 385.806 300.965 386.38 308.227C386.635 311.54 389.505 321.224 383.574 319.122C372.734 315.172 351.69 327.595 360.745 341.165Z" fill="#F3A140" stroke="#1C2628" stroke-width="2.13" stroke-linecap="round" stroke-linejoin="round"/>
<path fill-rule="evenodd" clip-rule="evenodd" d="M386.38 293.256C389.122 279.048 409.592 302.685 416.161 306.444C429.871 314.152 461.628 305.106 458.886 327.977C457.994 335.368 450.788 341.038 446.132 346.389C442.753 350.276 443.518 370.727 432.805 373.402C421.454 376.206 415.204 359.323 405.511 352.314C398.241 347.09 378.026 346.389 374.647 337.343C370.438 326.13 382.937 327.531 386.89 320.014C390.972 312.241 384.786 301.347 386.38 293.256Z" fill="#FAF6EB" stroke="#1C2628" stroke-width="2.13" stroke-linecap="round" stroke-linejoin="round"/>
<path fill-rule="evenodd" clip-rule="evenodd" d="M284.668 252.163C275.038 248.977 270.256 241.969 260.116 241.715C249.977 241.523 245.577 244.454 259.606 256.814C273.636 269.237 267.131 267.135 277.462 274.334C287.792 281.533 293.213 278.666 293.213 278.666L297.039 280.577L303.225 265.606C301.312 263.503 293.085 254.902 284.668 252.163Z" fill="#1C2628" stroke="#1C2628" stroke-width="2.13" stroke-linecap="round" stroke-linejoin="round"/>
<path fill-rule="evenodd" clip-rule="evenodd" d="M448.938 337.406L303.607 266.052C303.607 266.052 303.48 265.86 303.225 265.606L297.039 280.577L441.541 351.996L448.938 337.406Z" fill="#FAF6EB" stroke="#1C2628" stroke-width="2.13" stroke-linecap="round" stroke-linejoin="round"/>
<path fill-rule="evenodd" clip-rule="evenodd" d="M461.437 333.138L448.683 325.811L432.549 358.622L445.112 364.61L461.437 333.138Z" fill="#1C2628" stroke="#1C2628" stroke-width="2.13" stroke-linecap="round" stroke-linejoin="round"/>
<path d="M445.048 342.248L299.909 270.065" stroke="#1C2628" stroke-width="2.13" stroke-linecap="round" stroke-linejoin="round"/>
<path d="M442.242 346.39L296.848 274.971" stroke="#1C2628" stroke-width="2.13" stroke-linecap="round" stroke-linejoin="round"/>
<path fill-rule="evenodd" clip-rule="evenodd" d="M336.895 334.794C354.814 343.14 351.817 306.89 351.817 306.89L327.393 296.059L305.967 286.566L307.178 271.913C307.178 271.913 307.433 268.919 306.03 267.708C304.628 266.498 301.567 267.135 301.567 267.135C301.567 267.135 301.184 264.077 300.164 263.376C297.039 261.082 294.679 262.802 294.679 262.802L291.3 256.75C291.3 256.75 294.106 252.609 294.807 249.423C295.508 246.556 294.169 244.518 293.723 244.709C292.192 245.282 285.688 255.794 285.688 255.794L286.453 279.94C286.517 279.877 318.976 326.448 336.895 334.794Z" fill="#E6914C" stroke="#1C2628" stroke-width="2.13" stroke-linecap="round" stroke-linejoin="round"/>
<path d="M301.63 266.88C300.865 271.021 298.442 278.73 300.1 282.616" stroke="#1C2628" stroke-width="2.13" stroke-linecap="round" stroke-linejoin="round"/>
<path d="M296.338 262.611C292.639 263.567 290.726 278.348 293.213 280.705" stroke="#1C2628" stroke-width="2.13" stroke-linecap="round" stroke-linejoin="round"/>
<path d="M533.369 350.594C532.285 348.428 530.818 346.899 529.671 344.733" stroke="#1C2628" stroke-width="2.13" stroke-linecap="round" stroke-linejoin="round"/>
<path d="M526.737 351.231C524.441 347.154 525.334 338.999 523.74 334.603" stroke="#1C2628" stroke-width="2.13" stroke-linecap="round" stroke-linejoin="round"/>
<path d="M521.062 350.977C519.34 350.148 518.001 336.069 517.427 333.52" stroke="#1C2628" stroke-width="2.13" stroke-linecap="round" stroke-linejoin="round"/>
<path fill-rule="evenodd" clip-rule="evenodd" d="M413.737 175.074C413.737 175.074 416.416 159.593 398.879 161.249C381.342 162.906 368.27 169.277 367.951 174.119C367.632 178.96 368.907 182.783 368.907 182.783L413.737 175.074Z" fill="#E6914C" stroke="#1C2628" stroke-width="2.13" stroke-linecap="round" stroke-linejoin="round"/>
<path fill-rule="evenodd" clip-rule="evenodd" d="M414.503 176.985C414.503 176.985 424.77 168.194 420.88 165.008C414.439 159.593 379.429 174.119 379.429 174.119L368.142 182.528L414.503 176.985Z" fill="#FAF6EB" stroke="#1C2628" stroke-width="2.13" stroke-linecap="round" stroke-linejoin="round"/>
<path d="M454.933 404.429C454.933 404.429 465.391 466.1 468.962 496.681" stroke="#FAF6EB" stroke-width="2.13" stroke-linecap="round" stroke-linejoin="round"/>
<path d="M385.424 371.236C372.861 391.623 355.835 447.114 355.835 447.114C355.835 447.114 356.472 474.255 357.939 487.315" stroke="#FAF6EB" stroke-width="2.13" stroke-linecap="round" stroke-linejoin="round"/>
<path fill-rule="evenodd" clip-rule="evenodd" d="M486.562 570.202L489.177 588.932L445.112 589.506L433.123 575.935L446.451 568.035L447.089 557.396L459.205 570.202H486.562Z" fill="#1C2628" stroke="#1C2628" stroke-width="2.13" stroke-linecap="round" stroke-linejoin="round"/>
<path fill-rule="evenodd" clip-rule="evenodd" d="M369.481 558.352L369.354 574.215L328.605 578.102L315.66 565.487L328.35 556.568L331.666 545.737L341.231 557.842L369.481 558.352Z" fill="#1C2628" stroke="#1C2628" stroke-width="2.13" stroke-linecap="round" stroke-linejoin="round"/>
<path fill-rule="evenodd" clip-rule="evenodd" d="M489.177 585.364L489.687 595.876L407.105 596.705C407.105 596.705 402.195 587.467 410.039 583.198C417.882 578.93 436.376 574.152 436.376 574.152L443.263 585.364H489.177Z" fill="#FAF6EB" stroke="#1C2628" stroke-width="2.13" stroke-linecap="round" stroke-linejoin="round"/>
<path fill-rule="evenodd" clip-rule="evenodd" d="M369.8 570.648L370.438 582.37L289.514 582.943C289.514 582.943 285.752 579.312 293.213 574.47C300.738 569.628 318.784 563.448 318.784 563.448L326.5 574.088L369.8 570.648Z" fill="#FAF6EB" stroke="#1C2628" stroke-width="2.13" stroke-linecap="round" stroke-linejoin="round"/>
<path fill-rule="evenodd" clip-rule="evenodd" d="M469.855 583.389C470.365 581.988 469.6 580.395 468.197 579.949C466.794 579.503 465.263 580.268 464.753 581.669C464.243 583.135 465.008 584.664 466.411 585.11C467.814 585.619 469.345 584.855 469.855 583.389Z" fill="#FAF6EB" stroke="#1C2628" stroke-width="2.13" stroke-linecap="round" stroke-linejoin="round"/>
<path fill-rule="evenodd" clip-rule="evenodd" d="M352.901 570.138C353.284 568.673 352.455 567.207 350.988 566.825C349.521 566.443 348.055 567.335 347.672 568.8C347.289 570.265 348.118 571.794 349.585 572.113C351.052 572.495 352.519 571.603 352.901 570.138Z" fill="#FAF6EB" stroke="#1C2628" stroke-width="2.13" stroke-linecap="round" stroke-linejoin="round"/>
<path fill-rule="evenodd" clip-rule="evenodd" d="M457.802 583.326C458.312 581.86 457.547 580.331 456.144 579.885C454.741 579.439 453.211 580.204 452.701 581.606C452.191 583.071 452.956 584.6 454.359 585.046C455.762 585.556 457.292 584.727 457.802 583.326Z" fill="#FAF6EB" stroke="#1C2628" stroke-width="2.13" stroke-linecap="round" stroke-linejoin="round"/>
<path fill-rule="evenodd" clip-rule="evenodd" d="M340.849 570.966C341.231 569.501 340.402 568.035 338.936 567.653C337.533 567.271 336.002 568.163 335.683 569.628C335.301 571.093 336.13 572.559 337.596 572.941C338.999 573.323 340.466 572.431 340.849 570.966Z" fill="#FAF6EB" stroke="#1C2628" stroke-width="2.13" stroke-linecap="round" stroke-linejoin="round"/>
<path d="M450.277 571.54C450.405 571.731 449.959 571.157 449.831 570.966C448.938 569.565 448.045 568.29 447.025 566.952" stroke="#FAF6EB" stroke-width="2.13" stroke-linecap="round" stroke-linejoin="round"/>
<path d="M332.431 559.817C332.559 560.008 332.049 559.498 331.921 559.307C330.964 557.969 329.944 556.759 328.86 555.485" stroke="#FAF6EB" stroke-width="2.13" stroke-linecap="round" stroke-linejoin="round"/>
<path d="M447.089 575.362C447.089 575.362 443.9 571.348 442.561 569.182" stroke="#FAF6EB" stroke-width="2.13" stroke-linecap="round" stroke-linejoin="round"/>
<path d="M329.561 563.831C329.561 563.831 326.118 560.072 324.587 558.033" stroke="#FAF6EB" stroke-width="2.13" stroke-linecap="round" stroke-linejoin="round"/>
<path d="M442.561 577.21C441.477 575.489 440.266 573.833 439.054 572.24" stroke="#FAF6EB" stroke-width="2.13" stroke-linecap="round" stroke-linejoin="round"/>
<path d="M325.225 565.997C324.014 564.34 322.674 562.811 321.335 561.282" stroke="#FAF6EB" stroke-width="2.13" stroke-linecap="round" stroke-linejoin="round"/>
<path d="M444.729 585.492L418.584 590.525" stroke="#1C2628" stroke-width="2.13" stroke-linecap="round" stroke-linejoin="round"/>
<path d="M327.967 574.152L313.109 577.847" stroke="#1C2628" stroke-width="2.13" stroke-linecap="round" stroke-linejoin="round"/>
<path fill-rule="evenodd" clip-rule="evenodd" d="M319.868 431.442C319.868 421.758 331.73 377.544 341.04 344.542C345.376 345.944 349.202 348.428 351.753 352.697C352.901 354.608 352.136 357.093 350.159 358.112C346.397 360.087 342.57 360.342 340.402 364.547C336.385 372.511 346.142 379.71 346.142 390.158C345.057 391.496 343.973 392.834 342.826 394.044C343.973 392.834 345.121 391.496 346.142 390.158C346.142 391.369 346.014 392.643 345.695 393.981C343.527 403.219 335.938 401.881 331.347 414.75C329.179 420.739 330.646 421.567 327.585 432.844C324.779 443.101 323.376 443.356 323.057 448.325C322.419 458.582 328.414 461.831 327.967 468.33C327.648 472.917 324.141 477.823 319.358 481.9C319.55 465.144 319.932 441.253 319.868 431.442Z" fill="#FAF6EB"/>
<path fill-rule="evenodd" clip-rule="evenodd" d="M402.131 392.006C406.213 418.445 414.566 470.751 417.946 480.562C418.074 480.881 419.285 488.781 420.178 494.323C429.106 489.545 438.926 484.831 439.054 481.9C439.245 475.975 427.575 471.961 422.793 461.322C419.349 453.677 422.665 454.823 419.03 440.552C416.607 431.06 411.187 432.461 409.975 426.409C406.595 409.271 415.077 398.44 409.911 393.598C408.763 392.452 406.531 391.432 402.131 392.006Z" fill="#FAF6EB"/>
<path fill-rule="evenodd" clip-rule="evenodd" d="M419.03 294.339C419.987 297.588 421.581 300.455 423.813 302.366C430.764 308.482 441.158 300.391 456.846 306.762C458.504 307.463 468.388 311.604 474.956 321.479C483.31 333.966 477.571 342.44 484.012 352.442C486.052 355.627 488.922 358.367 492.302 360.66C502.058 338.426 501.229 307.463 464.498 298.225C436.184 291.153 425.662 293.956 419.03 294.339Z" fill="#1C2628" stroke="#1C2628" stroke-width="2.13" stroke-linecap="round" stroke-linejoin="round"/>
<path d="M341.04 344.542L319.869 426.982L319.55 460.557" stroke="#1C2628" stroke-width="2.13" stroke-linecap="round" stroke-linejoin="round"/>
<path d="M406.149 418.764L420.178 494.387" stroke="#1C2628" stroke-width="2.13" stroke-linecap="round" stroke-linejoin="round"/>
<path d="M423.813 223.812L419.03 223.302L416.416 270.065" stroke="#FAF6EB" stroke-width="2.13" stroke-linecap="round" stroke-linejoin="round"/>
<path d="M376.113 223.876V262.611" stroke="#FAF6EB" stroke-width="2.13" stroke-linecap="round" stroke-linejoin="round"/>
<path d="M364.571 435.965C364.762 435.774 359.533 447.879 359.597 449.981C359.724 456.671 360.426 475.019 361.574 481.581" stroke="white" stroke-width="2.13" stroke-linecap="round" stroke-linejoin="round"/>
<path d="M363.678 451.765C365.272 462.66 366.42 473.618 367.122 484.576" stroke="white" stroke-width="2.13" stroke-linecap="round" stroke-linejoin="round"/>
<path d="M449.831 401.626C450.66 412.52 452.382 423.351 454.933 433.927" stroke="white" stroke-width="2.13" stroke-linecap="round" stroke-linejoin="round"/>
<path d="M445.558 415.515C446.387 423.415 447.854 431.315 449.895 439.023C453.211 451.574 458.185 464.316 456.463 477.186" stroke="white" stroke-width="2.13" stroke-linecap="round" stroke-linejoin="round"/>
<path d="M457.101 442.973C457.675 447.624 458.312 452.211 458.886 456.862" stroke="white" stroke-width="2.13" stroke-linecap="round" stroke-linejoin="round"/>
<path d="M415.587 428.257C415.906 429.594 416.99 430.614 417.946 431.569C421.772 435.647 423.941 441.317 423.749 446.923" stroke="white" stroke-width="2.13" stroke-linecap="round" stroke-linejoin="round"/>
<path d="M417.181 408.124C417.053 413.731 418.329 419.337 420.816 424.306" stroke="white" stroke-width="2.13" stroke-linecap="round" stroke-linejoin="round"/>
<path d="M353.666 335.049C354.368 338.044 355.133 341.102 356.982 343.586C358.513 345.625 360.681 347.027 362.785 348.428C364.635 349.702 366.548 350.913 368.588 351.805C375.029 354.608 383 353.971 388.485 358.431" stroke="white" stroke-width="2.13" stroke-linecap="round" stroke-linejoin="round"/>
<path d="M393.267 368.688C390.908 366.267 388.548 363.782 385.679 361.998C382.809 360.215 379.366 359.068 376.05 359.577" stroke="white" stroke-width="2.13" stroke-linecap="round" stroke-linejoin="round"/>
<path d="M361.064 264.969C357.811 267.007 353.858 267.835 350.032 267.39" stroke="white" stroke-width="2.13" stroke-linecap="round" stroke-linejoin="round"/>
<path d="M352.71 255.285C351.116 255.157 349.521 254.839 347.991 254.265" stroke="white" stroke-width="2.13" stroke-linecap="round" stroke-linejoin="round"/>
<path d="M437.906 266.052C433.761 266.816 429.616 267.135 425.407 267.135" stroke="white" stroke-width="2.13" stroke-linecap="round" stroke-linejoin="round"/>
<path d="M435.865 260.7C431.848 262.102 427.575 262.802 423.367 262.739" stroke="white" stroke-width="2.13" stroke-linecap="round" stroke-linejoin="round"/>
<path d="M424.514 239.994C422.984 247.066 422.219 254.265 422.219 261.465C422.219 264.969 422.283 268.855 419.923 271.403" stroke="white" stroke-width="2.13" stroke-linecap="round" stroke-linejoin="round"/>
<path d="M421.709 273.76C423.048 273.314 423.941 271.722 423.686 270.32" stroke="white" stroke-width="2.13" stroke-linecap="round" stroke-linejoin="round"/>
<path d="M437.077 293.192H420.625" stroke="white" stroke-width="2.13" stroke-linecap="round" stroke-linejoin="round"/>
<path d="M358.258 220.69C361.574 223.494 364.698 226.552 367.696 229.673" stroke="white" stroke-width="2.13" stroke-linecap="round" stroke-linejoin="round"/>
<path d="M413.1 208.267C413.61 212.472 415.013 216.485 417.245 220.117" stroke="white" stroke-width="2.13" stroke-linecap="round" stroke-linejoin="round"/>
<path d="M408.955 207.694C409.146 210.178 409.337 212.727 409.529 215.211" stroke="white" stroke-width="2.13" stroke-linecap="round" stroke-linejoin="round"/>
<path d="M376.241 195.589C375.986 203.17 376.751 208.777 376.496 216.358C376.496 217.186 376.432 218.014 376.05 218.715" stroke="white" stroke-width="2.13" stroke-linecap="round" stroke-linejoin="round"/>
<path d="M217.391 461.577V589.442" stroke="#FAF6EB" stroke-width="2.13" stroke-linecap="round" stroke-linejoin="round"/>
<path d="M224.66 477.886H236.968" stroke="#FAF6EB" stroke-width="2.13" stroke-linecap="round" stroke-linejoin="round"/>
<path d="M224.66 484.576H236.968" stroke="#FAF6EB" stroke-width="2.13" stroke-linecap="round" stroke-linejoin="round"/>
<path d="M224.66 491.265H236.968" stroke="#FAF6EB" stroke-width="2.13" stroke-linecap="round" stroke-linejoin="round"/>
<path d="M239.391 473.236H222.046V496.107H239.391V473.236Z" stroke="#FAF6EB" stroke-width="2.13" stroke-linecap="round" stroke-linejoin="round"/>
<path d="M144.311 473.236H207.379V496.044H119.632V485.213" stroke="#FAF6EB" stroke-width="2.13" stroke-linecap="round" stroke-linejoin="round"/>
<path d="M130.218 488.462C132.014 488.462 133.47 487.007 133.47 485.213C133.47 483.418 132.014 481.964 130.218 481.964C128.421 481.964 126.965 483.418 126.965 485.213C126.965 487.007 128.421 488.462 130.218 488.462Z" stroke="#FAF6EB" stroke-width="2.13" stroke-linecap="round" stroke-linejoin="round"/>
<path d="M144.311 488.462C146.107 488.462 147.563 487.007 147.563 485.213C147.563 483.418 146.107 481.964 144.311 481.964C142.515 481.964 141.058 483.418 141.058 485.213C141.058 487.007 142.515 488.462 144.311 488.462Z" stroke="#FAF6EB" stroke-width="2.13" stroke-linecap="round" stroke-linejoin="round"/>
<path d="M158.404 488.462C160.2 488.462 161.656 487.007 161.656 485.213C161.656 483.418 160.2 481.964 158.404 481.964C156.608 481.964 155.152 483.418 155.152 485.213C155.152 487.007 156.608 488.462 158.404 488.462Z" stroke="#FAF6EB" stroke-width="2.13" stroke-linecap="round" stroke-linejoin="round"/>
<path d="M199.216 481.9H168.734V488.398H199.216V481.9Z" stroke="#FAF6EB" stroke-width="2.13" stroke-linecap="round" stroke-linejoin="round"/>
<path d="M160.955 565.296C176.275 565.296 188.694 552.888 188.694 537.582C188.694 522.276 176.275 509.868 160.955 509.868C145.634 509.868 133.215 522.276 133.215 537.582C133.215 552.888 145.634 565.296 160.955 565.296Z" stroke="#FAF6EB" stroke-width="2.13" stroke-linecap="round" stroke-linejoin="round"/>
<path d="M160.955 560.581C173.669 560.581 183.975 550.284 183.975 537.582C183.975 524.88 173.669 514.583 160.955 514.583C148.24 514.583 137.934 524.88 137.934 537.582C137.934 550.284 148.24 560.581 160.955 560.581Z" stroke="#FAF6EB" stroke-width="2.13" stroke-linecap="round" stroke-linejoin="round"/>
<path d="M160.955 548.986C167.259 548.986 172.369 543.881 172.369 537.582C172.369 531.284 167.259 526.178 160.955 526.178C154.65 526.178 149.54 531.284 149.54 537.582C149.54 543.881 154.65 548.986 160.955 548.986Z" stroke="#FAF6EB" stroke-width="2.13" stroke-linecap="round" stroke-linejoin="round"/>
<path d="M103.179 577.656H244.684" stroke="#FAF6EB" stroke-width="2.13" stroke-linecap="round" stroke-linejoin="round"/>
<path d="M244.684 518.087H217.008V545.737H244.684V518.087Z" fill="#FAF6EB"/>
<path d="M244.046 518.087V540.831" stroke="#1C2628" stroke-width="2.13" stroke-linecap="round" stroke-linejoin="round"/>
<path d="M277.781 592.181H369.226" stroke="#1C2628" stroke-width="2.13" stroke-linecap="round" stroke-linejoin="round"/>
<path d="M347.672 587.658H384.34" stroke="#1C2628" stroke-width="2.13" stroke-linecap="round" stroke-linejoin="round"/>
<path d="M385.105 606.771H476.806" stroke="#1C2628" stroke-width="2.13" stroke-linecap="round" stroke-linejoin="round"/>
<path d="M458.759 603.649H541.914" stroke="#1C2628" stroke-width="2.13" stroke-linecap="round" stroke-linejoin="round"/>
<path d="M370.502 581.032H287.601V584.218H370.502V581.032Z" fill="#1C2628" stroke="#1C2628" stroke-width="2.13" stroke-linecap="round" stroke-linejoin="round"/>
<path d="M489.751 593.774H406.213V596.96H489.751V593.774Z" fill="#1C2628" stroke="#1C2628" stroke-width="2.13" stroke-linecap="round" stroke-linejoin="round"/>
</svg>
